<?xml version='1.0' encoding='utf-8'?>
<svg xmlns="http://www.w3.org/2000/svg" version="1.1" id="Layer_1" x="0px" y="0px" viewBox="0 0 2663.905 1748.607" enable-background="new 0 0 2663.905 1748.607"> <g> <path d="M1136.857,37.526c64.526-16.869,148.053,6.825,184.415,13.319c51.771,15.209,177.515,6.592,196.203,9.582 c-7.51-0.07-103.776-1.257-112.116,1.995c14.84,5.306,23.062,3.122,37.597,3.512c135.229-1.232,37.276-4.94,326.049,55.622 c12.378,2.669,25.177,3.611,37.245,7.615c0.006,0.004,88.892,63.012,88.892,63.013c37.96,12.575,144.339,41.938,146.172,42.177 c3.231,5.476-0.471,1.173,39.859,41.503c5.521,5.648,7.573,15.216,15.89,17.66c81.57,34.691,26.217,1.831,126.208,69.222 c0.903,0.602,41.484,27.368,42.57,27.607c0.305,1.001,54.837,68.269,68.717,84.466c0.323,1.003,29.704,73.852,35.405,81.235 c54.95,39.272,48.566,13.017,107.985,94.484c19.606,83.598,8.737,66.685,40.421,118.199c3.948,5.339,5.255,11.998,6.983,18.293 c28.266,88.175,20.742,63.6,21.959,83.244c61.076,89.236,59.435,277.473,64.305,289.97c1.66,17.883-17.986,148.738-18.25,149.741 c-25.365,86.434-28.982,78.512-14.288,144.149c1.579,4.764-7.716,43.304-9.807,56.409 c-18.471,44.711-48.229,77.291-112.987,165.336c-0.002,0.001-59.879,27.27-59.88,27.27c-0.005,0.001-78.369,10.354-78.369,10.354 c-4.87-3.011-30.92-13.735-41.278-20.625c-21.299-4.159-42.697-7.713-64.066-11.549c-42.476-3.823-86.64-40.476-109.98-43.16 c-38.903-5.859-77.891-9.835-116.823-15.033c-3.058-1.397-63.97-32.923-64.122-33.017c-13.179-19.88-26.596-39.606-39.578-59.598 c-14.205,5.69-44.874-2.879-55.018-2.824c-7.46-5.381-14.738-11.015-22.297-16.241c-113.871,50.61-175.482,37.135-204.028,42.318 c-66.839,33.195-30.138,27.022-139.499,26.146c-4.959-1.601-10.158-1.152-15.258-1.587c-4.774-1.778-25.897-2.473-31.007-2.473 c-5.856,3.012-36.671,25.504-37.344,26.16c-2.259,0.846-41.144,9.023-43.231,9.385c-10.72-1.545-60.301,1.137-104.304-19.698 c-2.796-1.56-5.325,1.405-7.797,2.403c-9.919,6.94-22.184,9.975-31.556,17.717c-0.163,0.035-47.715,16.715-48.78,17.253 c-18.124,0.323-36.262-0.112-54.386,0.183c-18.907,10.229-108.424,32.134-188.152,15.089 c-124.1-32.166-76.981-26.187-145.877-53.641c-3.427-2.548-47.568-42.755-48.668-44.06c-23.132-26.361,3.779,18.801-50.888-72.018 c-8.008,0-16.031,0-24.039,0c-0.001-0.001-26.82-28.604-26.821-28.605c-3.892-11.479-6.196-23.421-10.116-34.899 c-0.407-18.63-0.042-37.274-0.169-55.917c-4.529-0.115-39.743-2.427-43.427-4.355c-242.998-112.657-262.028-64.454-380.857-122.091 c-14.414-8.037-21.916-6.13-30.516-16.902c-32.723-47.542-24.14-2.48-42.486-81.558c-0.493-55.264,0.736-55.603-0.955-57.941 c-21.178-33.596-20.142-39.905-30.937-54.99c-2.58-9.549-17.238-72.575-7.84-98.066c0.534-21.553,2.515-19.567,54.667-121.009 c2.192-6.73-2.079-13.024-3.498-19.431c-10.44-55.964-7.038-52.404,4.468-100.16c0.001-0.002,35.798-57.125,35.798-57.126 c4.66-2.89,48.903-44.796,49.904-45.605c5.395-2.164,10.917-4.046,16.354-6.112c0.364-33.483-3.027-23.068,10.242-78.186 c24.217-25.845,8.767-25.866,129.06-107.072c4.92-7.894,19.334-16.954,26.891-25.121c1-0.61,59.849-52.966,73.592-57.547 c17.339-2.615,80.39-22.702,90.48-24.278c5.69-0.379,11.563,0.702,17.098-1.18c8.795,0,17.211-3.189,26.006-3.189 c9.662-12.528,21.74-22.825,37.583-42.851c81.787-45.471,22.777-30.781,113.675-46.378c8.135-1.981,16.831-3.245,25.022-0.857 c0.002,0,26.048,1.939,26.048,1.939c8.725,2.754,17.829,0.169,26.68-0.281c5.22-9.866,28.6-26.295,38.763-36.079 c91.583-45.125,73.734-37.745,186.143-36.866c3.934,1.672,7.882,3.372,12.041,4.524c3.27-7.588,46.293-68.571,50.958-69.728 C1114.842,43.539,1126.166,41.629,1136.857,37.526 M1170.239,51.239c-7.46,1.686-14.935,3.372-22.283,5.507 c-4.566-0.295-9.006,0.983-13.024,3.021c-10.287,2.033-50.115,59.902-51.014,65.162c-1.054-1.616-4.974-1.967-5.381,0.225 c0.913,1.419,3.569,2.74,5.03,1.475c7.053,3.119,14.541,5.156,21.594,8.317c4.566,1.742,9.75,4.721,14.598,2.121 c0,0,64.082-23.353,77.68-29.125c1-0.464,69.301-13.461,150.247,3.386c15.606,1.049,63.965-0.851,84.382,1.194 c-2.894,1.166-5.831,2.107-8.739,3.147c-5.016-0.042-9.919,1.068-14.738,2.332c-90.828,25.185-91.893,14.415-132.249,13.53 c-8.458-4.412-18.25-0.702-27.228-0.45c-52.58-0.613-61.331,2.164-127.922,36.698c-0.037-0.016-83.617-30.539-85.155-30.895 c-6.571-3.116-91.177-2.386-95.116,0.141c-11.366,2.88-21.341,9.217-31.865,14.12c-22.061,10.176-17.516,0.088-38.285,22.142 c0,0-32.299,30.979-32.3,30.979c0,0-91.658,4.676-112.776,6.674c-64.07,39.63-45.624,25.251-83.904,59.303 c-8.05,9.301-20.161,14.78-25.851,26.09c-27.348,53.48-18.725,38.482-34.197,44.242c-3.99-0.309-8.233-0.702-11.816,1.447 c-1.009,0.021-44.966,5.961-46.518,6.561c-74.025,50.121-121.777,78.281-152.607,147.816c2.993,1.686,6.013,3.33,9.02,5.016 C308.2,612.389,232.153,602.549,221.778,681.715c-2.515,4.271-2.655,9.385,0.042,13.6c1.405,6.589,3.231,13.136,5.522,19.487 c0.001,0,67.55,8.753,67.551,8.753c2.633-17.775,4.013-13.979,4.622-23.126c1.756-5.058,2.36-10.706,5.774-15.033 c5.155-6.05,31.425-49.768,36.178-55.159c0.315-0.371,44.758-35.914,46.125-36.712c5.887-2.585,12.434-3.147,18.56-5.072 c3.288,0.042,6.589,0.014,9.877-0.028c3.612-13.01,0.93-43.436,9.961-62.156c7.791-7.281,16.137-22.766,34.857-46.392 c23.629-18.46,53.69-48.642,69.447-58.348c1.009-0.482,82.062-38.866,91.154-41.924c-64.213,52.747-155.015,90.219-170.211,171.476 l0.084-1.138c-1.11,8.402-0.407,16.958-2.093,25.317l1.349,0.056c5.998,3.125,3.635,0.806,61.804,9.821l-1.11-0.028 c7.432,0.759,14.907,1.377,22.395,1.391c15.393-19.218,26.081-28.322,27.509-85.703c3.639,16.143,2.988,20.887,6.35,30.193 c1.26,26.46,8.005-8.811-1.012,67.902c72.007,50.599-26.822,9.196,147.31,10.607c0,0,24.048,4.225,77.034,10.27 c25.493-51.985,18.331-50.9,26.554-70.15c0.192,0.942,0.041,50.165,0.028,51.127c-0.116,19.917,29.262,74.756,32.398,87.094 c1.11,8.627,1.152,17.562,4.271,25.795c4.925,78.436,52.258,131.462,56.789,138.389c-83.699-46.984-60.618-175.103-122.864-199.055 c-38.159-12.914,5.033-11.34-141.662-11.099c-11.244-0.292-19.442,9.93-44.959,24.994c-7.023,3.738-36.06,80.953-36.22,83.132 c-9.198,73.279-10.495,57.982-5.044,70.403c4.412,8.05,5.803,17.716,11.746,24.924c-2.346,2.248,1.798,6.435,4.088,4.131 c18.165,18.807,103.28,40.269,144.894,91.505c-61.411-15.354-145.342-54.98-146.509-56.1 c-41.559-39.205-23.091-12.066-41.657-45.141c-0.93-5.721-10.566-31.008-13.698-37.007c-0.112-1.784-0.225-3.555-0.323-5.325 c-28.274-0.474-66.665-0.183-66.665-0.183c6.552-3.58,52.459-20.227,65.471-23.35c0,0,26.146-81.458,26.146-81.46 c2.22-2.979,3.147-6.589,3.33-10.242c0.452-1.002,14.483-26.168,18.012-30.923c-16.576-19.346-17.475-24.563-22.985-26.062 c-52.646-15.654-55.564-26.68-102.225-14.963c-5.909-0.119-26.488,2.357-33.874,5.845c-24.559,22.603-58.292,50.854-60.062,56.479 c-8.438,26.757-27.942,71.998-33.831,94.947c-3.396,5.637-2.556,70.756-0.183,75.531c2.88,16.522,8.542,32.412,12.757,48.626 c1.531,7.854,9.174,11.619,15.202,15.679c9.694,6.013,18.194,13.74,27.692,20.035c29.186,3.524,41.328-1.756,70.332-10.327 c47.707,144.911,33.391,94.664,74.505,160.615c63.261,39.409,187.338,61.773,218.05-6.519c0.731-5.788,1.925-13.277-2.922-17.604 c-25.941-26.274-21.848-33.388-108.646-52.756c-6.37-2.103-5.979-0.983-44.144-1.349c-5.795-0.214-7.562,1.475-26.638,5.985 c-8.317,1.967-16.86,2.571-25.247,4.074c8.612-4.58,14.668-12.898,23.575-16.888c63.157-17.119,77.951-6.877,114.111-6.997 c39.408,0.912,121.393,75.048,134.3,76.177c7.266,3.007,31.848,4.419,32.848,4.412c2.234,0.857,4.763,1.11,6.955-0.098 c30.375-2.702,24.618-4.06,33.48-21.678c2.403-3.864,0.295-8.388-0.731-12.322c0.883-13.758-15.172-23.265-22.114-33.087 c-96.433-109.535-66.849-73.505-79.886-98.53c-92.952-184.06-42.198-96.679-61.903-144.599c-1.017-2.015-2.065-3.513-36.051-18.798 c14.485,0.534,27.523,8.064,41.812,9.512c10.624-13.052,18.157-41.935,28.9-53.037c-5.056,46.628-13.726,70.818,16.213,136.141 c0.843,5.62,2.852,10.987,5.788,15.862c5.713,32.217,19.707,40.565,50.705,86.77c2.893,4.071,65.474,54.368,66.356,54.765 c83.544,8.896,31.102,6.004,75.165-3.035c3.526-1.082,7.727-0.871,10.453-3.723c16.335-15.66,14.121-14.837,14.036-31.134 c-3.519-33.646,7.048-8.43-15.3-88.667c-1.08-7.433,7.49-38.94,9.863-60.16c6.074-8.989,48.978-75.761,53.403-83.764 c19.253-63.743,34.644-123.752-22.957-156.583c-42.931-20.131-25.837-19.367-93.753-18.461 c-19.357-33.51-58.098-79.306-59.093-80.308c-4.369-1.136-52.642-9.507-62.633-2.922c-45.336,31.197-34.956,12.082-48.106,54.47 c-2.417,7.32-4.974,14.626-6.772,22.142c-2.083-12.15,4.333-47.968,3.667-57.898c1.138-3.26,1.419-7.137,4.285-9.469 c11.336-9.8,34.815-25.618,41.727-34.295c11.87-3.035,38.148,5.999,56.311,6.28c6.589,2.121,13.656,1.63,20.344,3.288 c8.907,5.24,16.045,12.883,23.856,19.557c47.144,34.889-2.516,28.391,156.906,76.416c9.655,3.121,9.344,9.575,24.573,20.892 c22.177-26.775,56.207-75.332,117.553-75.882c-3.091-6.013,1.236-12.659,1.321-18.939c2.782-7.868,4.355-16.087,5.564-24.32 c2.431-5.55,4.243-11.338,6.814-16.817c47.092-84.55,12.208-40.045,48.682-80.504c15.202-14.752,29.49-30.46,45.422-44.453 c-59.369,86.891-57.935,105.473-78.285,183.516c6.449-0.815,12.968-0.45,19.459-0.646c-6.927,2.037-13.783,4.271-20.807,5.859 c-0.281,1.517-0.548,3.049-0.801,4.58c-1.995-0.309-3.976-0.646-5.957-0.815c0.042-2.922-6.8-3.161-7.179-0.478 c-2.655-0.098-5.283,0.379-7.713,1.335c-8.761,0.723-37.57,8.337-45.071,11.563c-39.82,32.495-40.052,49.031-66.609,89.075 c-1.508,2.253-1.045,0.139-0.998,54.358c0.259,7.08-15.034,48.233-16.874,52.967c-13.671,33.506,11.539-9.822-44.369,69.475 c-3.976,5.859-9.807,10.523-12.125,17.407c-4.046,10.242-10.973,19.445-12.827,30.46c-0.042,1.001-1.561,48.027,1.883,54.527 c6.332,40.916,11.214,42.697,17.576,51.604c4.44,4.903,7.292,11.366,12.883,15.159c31.703,2.309,32.366-1.013,35.911-5.016 c4.538-5.297,10.017-9.736,14.106-15.426c8.308-10.564,20.4-33.352,25.177-38.032c1.005-0.94,35.509-26.873,41.755-29.912 c61.407-30.704,47.782-48.082,83.862-124.072c29.803-55.818,30.049-85.508,108.533-166.699 c-4.749,11.886-13.642,21.383-19.094,32.862c-6.278,6.798-43.651,71.83-50.017,79.184 c-16.963,38.999-38.594,140.675-85.703,188.265c-17.506,7.994-34.955,16.143-51.913,25.261c0,0-15.537,25.287-15.539,25.289v-1.278 c-0.815,9.329-0.66,18.784-0.112,28.127v-1.236c2.641,3.105,5.69,5.845,8.486,8.823c52.843-3.518-18.16,9.966,112.79-29.926 c16.493-4.766,73.132-39.081,89.285-45.577c0.213-0.193,33.158-36.555,34.52-38.58c1.406-2.007,32.349-59.21,37.232-63.518 c-6.267,20.465-36.037,102.239-36.037,102.239l-0.436-1.279c0.218,9.804-11.214,5.379,58.376,15.033 c1.166-0.66,2.29-1.419,3.386-2.248c16.739-21.415,49.038-35.203,59.626-60.132c40.04-63.434,68.333-149.858,80.813-222.995 c0.943-2.755,29.798-36.857,36.375-43.413c23.106-12.284,143.348-76.888,160.306-96.746 c32.428-52.704,20.484-87.601,26.371-103.995c-0.253-0.492-0.759-1.475-1.011-1.967c-2.99-19.07-2.421-35.846-4.861-43.596 c0.169-1.166,0.492-3.498,0.66-4.664c3.86,8.765,20.547,97.644,20.793,98.67c2.153-0.615,100.818-10.365,121.094-5.493 c0.001,0,84.185,7.179,84.185,7.179c-0.014,2.852,5.353,2.248,7.348,1.447c2.345,1.347,60.633,15.897,61.636,16.059l-0.155,1.096 c0.646-0.042,1.925-0.126,2.571-0.169c0.544-69.432-19.615-89.722-22.072-113.142c0.234,0.296,27.446,42.671,40.041,60.231 c0.894,14.127,9.47,48.876,11.282,53.206c29.868,29.96,56.073,50.52,59.584,56.676c-0.885,1.419,0.492,3.316,1.531,4.355 c1.489,0.042,2.403-2.417,1.854-3.639l1.04,0.281c4.032-9.259,11.198-17.422,13.347-27.312c3.063-0.351,1.925-6.28,1.475-8.669 c2.276-6.491,3.035-13.67,4.187-20.512l1.588-0.014c-0.113-11.254,0.211-22.507-0.14-33.747l0.309-0.983 c0.426,1.936,18.391,48.39,20.47,53.332c1,0.516,39.921,12.807,44.158,12.055c-0.337,2.627,4.468,2.698,5.985,1.377 c0,0,7.048,1.994,36.993,17.646c3.063,1.475,6.055,3.723,9.68,3.372c-61.477-84.605-69.513-88.94-198.339-164.802 c-35.874-6.191-16.758-17.72-129.27-21.805c2.121-0.913,4.355-1.63,6.547-2.459c6.39-0.349,48.97-4.711,65.022-9.146 c2.402,0.745,8.373,1.897,9.076-1.096c10.997,3.033,15.119,7.53,29.167,11.338c0,0-21.74-17.92-34.394-29.659 c-12.221-8.488-15.71-20.797-46.49-20.92l-0.056-1.18c-8.444-0.295-16.607-2.824-25.008-3.4c-2.796-1.447-6.013-1.096-8.992-0.885 c-0.141-2.726-5.381-2.15-7.264-1.321c-0.464-0.393-1.405-1.194-1.869-1.588c-2.515,0.014-4.988,0.07-7.432,0.028l-0.014-1.264 c-19.754-1.278-38.974-8.472-58.896-7.123c-9.798,2.396-66.081,12.09-78.804,12.659l-0.056,1.321 c-2.908,0.084-5.957-0.295-8.626,1.012c-10.681,0.658-41.667,6.148-41.896,6.14l-0.014,1.405 c-1,0.025-79.408,31.802-150.528,82.485c-1.002,0.882-23.993,52.254-27.635,62.31c-2.192,7.109-10.818,8.922-13.951,15.23 c-5.952,3.04-33.889,25.207-38.271,31.274c-11.039,6.046-72.103,45.535-72.103,45.535c-1,0.471-78.859,41.218-82.218,44.144 c-3.035,0.801-6.013,1.756-9.02,2.543c10.812-9.477,97.217-73.117,109.517-81.797c42.434-32.812,1.281,5.33,89.356-82.078 c2.374-2.374,4.678-4.96,5.704-8.247c18.458-49.285,19.582-21.792,25.669-89.468c2.964,12.125,4.58,24.545,6.772,36.824 c13.299-6.771,55.274-41.639,89.594-68.127c6.248-0.969,30.71-8.259,31.991-8.753c4.032-0.337,8.05-1.208,11.703-3.035 c3.653-0.548,7.334-1.222,10.804-2.585c4.004-0.365,7.994-1.25,11.675-2.979c3.203-0.464,6.378-1.279,9.371-2.571 c4.018-0.379,8.008-1.293,11.675-3.063c17.885-3.302,35.293-8.879,52.714-14.007c4.102,2.627,1.798-5.479-0.885-2.023 c-1.911-4.285-5.732-7.25-9.062-10.383c-95.801-77.91,35.086-4.083-272.998-83.82c-16.101-3.063-31.682-8.458-47.923-10.86 c-4.845-2.178-28.738-7.95-36.908-8.697c-3.201-1.289-69.858,2.067-74.73,2.74c-89.852,11.383-83.496-11.418-130.408-22.058 c-8.256-4.416-77.659-11.477-78.664-11.577C1180.875,48.822,1175.353,50.255,1170.239,51.239 M1069.56,121.81 C1069.883,126.32,1073.943,119.66,1069.56,121.81 M1073.409,123.201C1073.62,127.823,1077.582,121.065,1073.409,123.201 M2085.319,289.141C2086.176,290.026,2086.176,290.026,2085.319,289.141 M496.996,320.752 c-25.57,12.237-50.41,26.062-76.486,37.246c-2.219,0.896-135.768,117.665-136.773,118.663c-2.936,1.293-5.255,3.498-7.165,6.013 c-21.705,14.528-19.013,14.502-25.233,27.973c-8.399,21.602-13.876,15.574-10.383,49.469 c104.634-32.707,87.33-22.594,107.873-65.78c18.873-46.694,71.636-109.143,72.637-110.009 c61.561-41.723,75.976-44.832,122.611-66.834C506.451,315.597,503.414,318.094,496.996,320.752 M1899.274,413.536 c-15.272,1.433-30.417,4.004-45.732,4.945c-5.367,1.798-11.465-0.295-16.466,2.374c-24.503-0.039-22.64,1.483-57.674,44.27 c-69.207,50.236-17.911,23.397-106.609,61.973c-27.555,10.592-5.293,0.29-59.36,41.798c-24.313,23.308-7.58-2.439-39.367,58.994 c-3.259,5.873-4.566,12.574-7.854,18.433l0.253-1.25c-13.605,34.403-14.306,103.997-84.34,236.708 c6.202,0.58,74.172-10.947,104.136-28.141c2.029-1.059,56.896-28.396,58.629-29.855c7.875-6.292,30.178-21.505,33.059-22.845 c-1.348,3.527-40.512,45.756-43.259,49.216c-6.716,4.84-36.686,15.49-44.523,22.072c-1.714-1.25-3.765,0.969-4.651,2.276 c-1.222,2.037,2.248,2.487,3.232,1.25l-0.407,0.969c33.586,7.726,26.848,13.28,47.516,11.675c0.393,2.684,5.718,2.585,7.587,1.124 c12.293,4.833,190.16,25.233,230.99,10.846c14.281-1.785,59.344-14.295,63.785-15.033c13.01-7.84,24.278-18.293,37.484-25.809 c5.294-4.795,16.631-23.064,22.058-26.441c-0.45,2.922-1.18,5.803-1.405,8.767c-1.644,4.187-2.234,8.697-2.979,13.108 c-1.489,2.936-2.627,6.098-2.74,9.427c-1.812,3.54-2.866,7.404-2.711,11.408c-2.003,1.194-58.336,53.688-90.297,69.855 c163.048,65.409,197.401,121.15,234.362,159.323c-1.644-0.492-3.274-0.955-4.861-1.405c-0.862-2.28-87.533-74.389-92.039-74.28 c-118.937-66.956-262.435-101.66-282.257-110.36c-15.296-1.857-88.668-18.008-107.367-20.583 c-1.819-0.365-140.997-6.668-142.238-6.069c-1.925-1.686-3.246-1.363-3.976,0.927c-7.922-0.871-32.822,3.167-33.986,3.611 c-3.95,0.068-31.465,3.132-34.197,4.468c-4.609-0.038-74.487,7.647-75.896,8.584c-32.027,0.894-179.331,35.456-223.319,45.746 c-266.75,86.746-297.173,131.809-414.239,222.195c-26.697,18.566-20.945,13.028-77.526,103.728 c-6.924,9.991-17.62,58.48-18.489,62.956c-2.417,18.04,3.456,35.7,4.257,53.613c0.052,0.08,17.335,27.518,17.407,27.579 c31.403,21.497,30.61,10.544,68.422,14.317c-6.831,5.15-21.694,30.206-30.502,35.967c3.822,5.17,5.915,11.479,10.102,16.368 c21.149,42.887,77.652,82.028,120.012,103.925c180.989,45.468,146.976,41.015,224.555,21.074 c-68.506-55.603-74.227-56.914-80.785-65.612c43.122,22.999,42.339,38.285,144.739,48.429c7.901,2.045,73.013-11.964,74.013-12.518 c81.914-27.226,56.838-17.038,75.418-13.403c13.459,5.592,28.183,7.573,42.683,7.095c4.215,2.908,9.708,1.138,14.513,1.827 c3.695,1.616,7.98,1.602,11.689,0.014c3.878-0.379,8.163,0.506,11.647-1.672c34.246,1.278,33.961-4.957,96.788-45.999 c15.389,4.466,39.165,14.674,43.835,14.977c3.113,2.171,65.611,6.052,67.832,6.013c14.682-5.337,22.978-5.641,81.713-28.493 c5.76-2.615,25.7-1.959,31.134-3.85c55.769-2.766,46.767-2.916,100.694-18.925c59.582-18.776,22.793,7.25,90.929-70.951 c0.098,0.759,0.295,2.304,0.407,3.077c-0.309,0.669-4.027,27.456-5.297,56.704c8.331-0.07,16.354,2.543,24.601,3.358 c17.108,4.718,29.548-2.128,52.307-3.456c65.526-23.379,78.013-38.212,94.076-56.213c34.456-39.763,9.859,7.84,68.773-85.787 c82.104-130.395,49.384-91.421,79.437-156.414c-1.058-0.104-97.761-13.077-108.308-14.766 c-5.802-1.374-230.848-18.23-250.982-3.906c-27.431-0.026-118.955,17.093-137.265,18.714c-4.875-0.45-9.568-2.262-14.513-1.981 c-3.498-2.276-7.84-1.363-11.745-1.7c-53.909-11.791-13.526,5.493-88.695-31.977c-3.885-2.701-146.195,11.952-149.6,14.064 c-3.133-0.014-6.379-0.155-9.315,1.026c-5.746,0.843-12.209-1.307-17.379,1.84c-15.06-1.114-104.21,6.703-148.828,20.737 c-142.31,1.35-254.323,29.69-368.901,84.565c-45.3,25.527,8.177-19.389-76.697,73.662c-5.086,20.203-9.961,40.491-15.637,60.554 c-1.04-19.641-0.112-39.325-0.702-58.98c-3.859,5.789-32.916,45.226-39.381,47.614c8.544-11.108,37.4-56.387,38.861-59.332 c-25.103-2.197-2.885,6.586-54.274-21.018c-2.192-7.32-3.892-15.3-3.85-23.083c14.387,3.583,28.886,6.912,43.245,10.481 c9.343-0.717,18.855-2.093,27.818-4.651c2.304,0.731,8.388,1.574,8.542-1.616c4.454-0.787,7.517-4.861,11.254-7.193 c89.18-63.458,6.465-18.156,165.996-82.626c6.826-1.469,138.757-36.149,157.904-42.528c-11.976-23.751-15.08-23.938-25.359-77.989 c3.098-9.61,18.82-40.144,21.693-44.383c1.559,18.349,0.112,36.81,0.829,55.187c4.58,9.287,5.395,19.908,10.214,29.125 c0.403,0.361,36.462,24.438,41.025,26.371c9.124,3.214,55.595,6.92,59.823,5.606c27.214-6.21,54.484-12.307,81.403-19.712 c11.07-2.08,108.761,9.336,123.96-1.826c8.903,0.224,102.246-9.312,108.674-10.13c3.653-7.978,15.934-55.991,16.185-56.999 c15.103-5.184,29.336-12.771,44.608-17.534c-7.488,13.375-17.66,24.966-26.287,37.569c-1.026,12.448-2.796,24.938-6.126,37.021 c52.642,45.14,73.73,35.246,168.595,24.151c197.162-20.567,310.231-2.802,319.643-2.852c1.143,0.766,70.437,8.992,82.05,8.233 l-0.028,1.798c4.665,0,9.343-0.056,14.021,0.197c2.164,0.913,4.566,0.899,6.927,1.124c-0.373-1.002-10.075-28.723-10.818-32.946 c10.713,8.975,16.294,12.261,28.043,22.002c35.822-35.492,125.973-61.39,143.812-75.545c0,0,36.378-81.537,37.47-83.609 c5.479-0.112,10.973-0.141,16.48-0.042c-0.008,0.036-26.271,89.988-27.045,92.039c-15.946,9.062-33.34,15.117-49.511,23.758 c-97.757,47.839-75.023,35.399-85.941,51.731c-71.235,113.172-49.175,73.463-75.306,170.577c-3.282,15.4-2.706,3.644,5.535,30.797 c3.695,6.598-6.77,5.131,62.254,5.03c0.619,0.688,98.281,87.476,100.764,89.032c75.414,13.046,41.105,16.408,67.325,4.285 c16.268-7.919,96.469-100.192,94.99-216.547c8.372-18.097-9.772-60.818-13.361-73.732c-24.727,13.783-48.527,29.265-74.252,41.165 c79.62-65.581,49.075-28.328,83.553-77.413c3.681-7.46,2.669-15.904,2.74-23.927c0.773-2.599,1.419-5.269,1.531-7.98 c2.135-6.055,1.138-12.56,1.138-18.827l-1.869,0.098c-7.792-47.603-4.582,2.167-12.335-77.287 c-0.717-10.186,2.262-20.203,1.503-30.389c2.656-4.988,1.363-10.776,1.433-16.143c2.486-10.138,2.878-7.34-8.402-18.77 c-3.406-5.828-14.015-15.01-18.77-14.78c1.77-3.597-6.365-3.751-4.552-0.14l-1.026-0.084c-3.681,5.564-7.727,10.931-12.574,15.539 c-27.074,0.14-54.147,0.028-81.221,0.056l0.267,1.531h-1.222c-7.198,18.717-32.177,65.308-35.194,71.766 c-1.009,0.783-68.159,42.266-70.993,43.54c1.419-2.635,45.363-50.281,46.378-51.239c3.85-6.421,11.352-10.228,13.445-17.702 c5.979-15.804,21.162-46.126,20.527-52.349c2.824,0,2.276-5.339,1.447-7.264c2.387-3.233,0.018-0.382,4.271-24.798 c-4.677-8.232-31.889-39.52-38.355-44.13l1.18,0.225c-1.854-0.579-19.141-5.338-24.039-5.564 c-7.854-2.754-16.185-3.555-24.221-5.522c0.135-8.215,4.822-15.602,4.088-26.413c0.688-0.407,2.051-1.222,2.726-1.63 c61.998,35.716,62.048,14.678,107.494,81.333c6.379,1.138,12.687,2.655,19.023,4.074c5.271-1.076,44.717-14.495,49.567-23.013 c3.85-5.873,12.897-7.84,14.064-15.356c1.635-4.51,2.558-39.966,2.655-40.969c1.883-4.636,0.998-9.793,1.152-14.654 c2.487-0.211,2.487-7.503,0.056-7.826c-0.042-0.618-0.141-1.883-0.183-2.515c-31.402-84.897-32.008-77.747-40.646-83.483 c-17.113-10.917-32.216-24.685-49.356-35.546c-24.937,24.505-97.113,115.2-99.303,118.691c-7.011,2.768-14.457,4.889-21.454,7.84 c-3.583,0.281-7.025,1.321-10.186,2.922c-6.098,1.152-11.577,4.159-17.393,6.126c-1.897,8.556-5.845,16.368-9.722,24.165 c-1.054,5.226-0.717,10.72-0.267,16.017c2.332,5.718,4.257,11.591,5.535,17.66c-0.189-0.086-37.461-16.45-37.948-16.607 c-0.618-10.86-0.056-21.749-0.225-32.623c1-0.853,23.936-21.661,27.031-26.877c2.29-0.309,4.763-0.225,6.927-1.307 c45.928-5.574,43.566-11.908,73.957-41.446c8.907-8.697,12.897-20.779,19.543-31.036c23.543-37.729,21.142-46.614,32.693-75.334 c-1.869-4.187-2.965-8.655-3.063-13.235l-0.618-0.998c-8.708-42.369-0.269-25.623-55.805-70.993 c-76.042-28.363-27.074-40.367-102.731-18.236c-78.765,55.194-7.546,8.867-80.982,93.318 c-58.799,86.223-14.813,12.573-54.625,108.421c-2.259,5.319,6.346,25.838,6.772,26.849c0.239,4.482,1.208,8.921,2.922,13.094 c0.028,0.702,0.084,2.093,0.112,2.796c-4.48-3.883-26.334-32.732-27.664-36.15c-0.759-12.898-5.592-25.43-4.44-38.426 c2.703-3.78,41.533-77.767,78.776-114.041c0.936-2.08,9.275-28.976,9.961-33.846c3.035-5.943,3.667-12.729,6.182-18.855 c0.951-4.431,42.018-22.643,58.25-33.494c-2.019-3.384-44.791-63.098-51.141-65.373c-1.001-0.433-55.445-24.851-58.643-27.06 c-1.25-0.899-2.613-1.293-4.102-1.166l-0.042-1.714c-4.622-0.014-9.231,0.07-13.825-0.267c-0.78-0.306-46.952-7.473-57.8-8.149 l-0.028-1.279c-12.659-0.562-25.064-3.681-37.709-4.707C1907.367,411.892,1902.941,411.962,1899.274,413.536 M2189.356,481.691 c-6.21,6.547-13.193,12.42-18.897,19.417c2.754,6.772,5.915,13.558,10.256,19.501c12.448-0.422,24.812,1.503,37.091,3.372 c25.393,16.995,78.706,47.909,78.706,47.909c4.349,5.441,27.511,44.696,31.218,51.534c2.838,14.148,4.299,28.605,6.323,42.922 c0.604,0.197,1.826,0.576,2.43,0.759l0.169,0.773c13.446,5.226,25.107,14.022,38.566,19.234 c9.624,7.727,19.712,14.864,29.462,22.465c2.88-8.598,3.498-17.941,7.713-26.062c-76.816-154.179-38.697-86.803-63.434-119.099 c-4.145-5.957-10.102-10.383-13.797-16.677c-1.897-1.545-3.92-2.936-6.098-3.948c4.131,13.435,13.459,41.987,15.427,56.297 c-5.275-6.411-47.345-84.929-47.853-85.942c-42.577-38.653-55.939-34.388-90.732-48.499 C2199.865,470.409,2194.934,476.422,2189.356,481.691 M2301.669,477.392C2302.526,478.277,2302.526,478.277,2301.669,477.392 M277.442,569.543c-4.708-0.226-37.602,9.263-40.758,10.678c-51.046,22.999-35.274,14.53-70.585,55.932 c-6.069,7.087-7.887,4.217-24.151,34.829c-13.48,25.122-12.053,16.294-12.406,30.895c0.333,11.973-4.198,44.833,10.144,65.598 c69.464-2.437,39.834-26.333,63.448-39.929c-10.588-21.398-5.933-21.926-10.762-42.374c-0.576-3.203-1.967-6.884,0.436-9.68 c26.34-40.758,16.238-41.661,50.916-68.492c2.042-1.536,33.04-30.355,37.906-36.234 C286.771,569.431,277.836,565.595,277.442,569.543 M2389.563,594.467c40.25,84.833,67.497,86.847,36.95,143.798 c24.329,64.426,15.351,71.029,24.952,98.713c0.225,4.018-0.042,8.107,1.152,12.026l0.309-1.447 c-0.419,2.89,0.404-1.935-6.421,31.457c1.158,5.831,13.979,33.853,21.173,54.85l0.731-0.239c0.983,3.611,2.22,7.165,3.822,10.565 c0.717-4.131,1.405-8.275,1.841-12.448c2.032-2.269,12.561-43.785,14.204-66.904l-1.545,0.014 c0.669-17.961-8.646-82.697-11.479-116.921l-0.674-1.25c-3.543-55.145-13.547-72.765-39.423-120.925 c-10.729-8.927-36.466-26.251-41.193-28.127C2394.228,595.38,2390.828,595.521,2389.563,594.467 M228.746,745.163 c-28.799,11.137-17.09,7.68-24.067,39.198c-0.25,1.016-3.502,78.506-16.944,99.598c-15.052,24.26-28.621,60.658-24.573,90.17 c5.984,37.175-1.522,16.573,19.669,45.156c3.896,5.661,44.28,36.928,53.234,39.564c35.127,12.325,43.999,18.209,59.936,22.901 c130.377,37.932,69.861,32.96,153.506,32.96c-24.531-19.569-18.3-25.503-46.729-35.714c-81.35-24.495-77.161-18.51-140.707-64.488 c-6.926-6.533-10.411-15.651-16.298-22.999c-13.973-21.619-1.389,8.116-31.78-60.722c-1.138-15.019,3.456-29.617,4.398-44.495 c5.803-5.802,11.31-11.928,17.562-17.253c-4.136,40.446-17.955,67.745,38.917,135.48c20.6,27.423,173.497,64.828,189.923,82.654 c57.033,60.001,133.043,80.711,215.057,84.607c17.375,0.985,6.641-0.805,30.951-20.428c0.001-0.001,34.393-24.685,34.393-24.685 c13.239-16.872,16.645-49.592,17.436-53.641c-4.945-2.95-9.793-6.027-14.766-8.907c-3.979,13.033-6.99,39.282-14.794,44.804 c-32.908,24.945-22.744,21.403-36.74,23.674c-6.125,0.628-53.394,5.13-63.996,3.414c-81.772-3.158-62.921-2.103-93.908-21.257 c-45.252-27.264-32.684-23.66-50.958-43.203c-4.046-5.704-9.891-9.863-13.811-15.637c-3.962-8.584-7.278-17.478-11.521-25.936 c-1.264,0.126-2.515,0.253-3.765,0.407c-0.155-0.421-31.499-78.228-31.499-78.228c-47.722-5.445-120.968,3.445-144.065-137.939 c1.63-22.802,2.754-45.661,5.086-68.408C272.841,751.212,247.78,738.302,228.746,745.163 M168.361,787.017 c-11.408,6.505-24.587,9.329-35.461,16.817c-0.001,0.002-24.671,44.2-24.671,44.2c-21.371,43.442-12.602,35.12-25.458,65.598 c-2.346,5.53-2.205,60.004-0.323,66.96c5.432,36.113-0.809,27.866,21.608,66.497c-0.927,1.391,0.66,4.06,2.402,3.723 c1.166-0.688,2.487-2.417,1.728-3.751c5.804-9.005,6.439-19.057,25.697-37.119c0.288-84.521-2.003-46.722,11.198-89.875 c3.526-13.929,25.078-51.928,26.399-53.768c8.356-12.15,1.485-0.69,7.545-80.406C175.428,785.809,171.803,785.907,168.361,787.017 M2508.058,824.572c-0.534,3.723-0.449,7.727,1.981,10.846c-1.602,10.2-0.379,20.611-0.73,30.895l1.447,0.042 c0.799,15.674-5.906,52.951-16.789,75.854c-9.232,22.324-17.371,32.065-16.621,37.667c17.339,155.351,15.281,58.82,2.992,180.453 c-0.873,11.149-6.051,11.083,9.048,51.66c1.418,47.22-2.515,71.091-2.515,71.091c20.362-31.537,30.794-113.301,26.863-123.257 c-0.773-9.006,1.602-18.475-1.517-27.13c-0.365-6.87,0.66-13.951-1.335-20.611c-0.14-4.875,0.871-10.116-1.672-14.555 c0.775-33.958,10.914-156.975,9.469-180.706c1.11-1.728,1.18-4.327,0.309-6.126c0.351-0.407,1.054-1.236,1.391-1.644 c-0.681-1.915-5.539-60.154-6.406-61.256c-0.857-3.793-1.152-7.91-3.189-11.268 C2510.741,832.383,2509.449,828.393,2508.058,824.572 M2546.146,926.305c-20.063,77.467,1.864,235.466-7.545,265.622 c-11.288,60.389,5.2,59.908-131.729,277.171c-9.119,14.277-5.256,14.155-29.448,25.682c-0.351,9.104,0.548,18.265-0.59,27.327 c-9.523,44.143-6.116,53.124-11.24,58.826c-37.83,40.776-3.856,25.135-82.078,41.629c-5.494,1.25-11.114,1.04-16.677,1.096 c-10.784-5.614-50.36,2.383-71.246-12.293c-4.71-3.442-45.248-32.593-59.332-40.379c-9.694-2.107-19.684-3.442-29.603-3.639 c-4.974-2.473-10.636-1.433-15.946-1.588c-103.646-40.366-14.055,6.568-113.676-65.907c-16.817,9.947-34.871,17.632-52.096,26.835 c16.269,30.036-10.626,5.088,46.139,50.649c8.205,5.24,17.309,8.88,25.907,13.432c23.476,10.572,17.998,15.871,46.785,16.087 c6.799,2.447,40.501,1.76,47.53,3.372c5.534,0.845,69.949,19.97,109.91,46.055c3.457,2.507,58.638,12.44,63.139,12.406 c5.198,2.107,11.268,2.192,16.452-0.07c102.776-27.722,57.684-4.55,128.484-55.187c9.188-6.322,17.534-13.923,27.411-19.234 c-6.898,11.97-17.113,21.538-25.416,32.483c-13.468,15.798-8.111,23.823-89.299,58.348c19.711,0.337,39.479,0.492,59.163-0.042 c67.885-34.533,81.98-64.972,98.305-80.055c0.869-0.808,48.731-67.02,50.818-70.852c2.894-2.965,6.772-6.618,5.381-11.184 c3.779-23.083,5.212-46.574,10.27-69.475c-35.207,46.149-68.688,83.581-68.688,83.581c7.188-13.916,48.133-85.564,61.186-115.938 l1.798,0.253c-0.001-0.653,0.084-103.687,0.197-104.333c9.301,12.434,12.869,28.296,22.859,40.238 c2.992-12.483,21.763-100.946,22.03-112.959c-0.299-109.905,0.74-104.648-1.335-110.149c-0.388-23.027-6.518-64.724-7.264-66.061 C2574.311,994.786,2558.179,960.292,2546.146,926.305 M156.236,1043.38c-4.679,11.324-6.35,23.561-9.947,35.236 c-2.231,4.979,11.051,40.036,14.907,46.603c91.867,58.795,48.83-2.611,284.266,64.319c36.829,13.656,103.56,68.323,103.56,68.323 c2.922,3.4,7.713,2.023,11.619,2.164c3.049,0.703,6.196,0.941,9.329,1.166c16.906,6.62,35.918,0.691,52.293-7.151 c-1.288-2.114-37.613-60.802-45.198-64.151c-0.578-0.28-104.232-51.435-104.852-51.267c-89.704,12.764-73.846,8.495-93.767,5.76 c-4.032-2.122-8.57-3.007-13.094-3.021c-8.261-3.105-17.084-4.116-25.556-6.407c-74.486-16.213-72.706-25.181-114.954-39.648 c-34.187-11.006-35.643-20.202-41.741-25.697C174.093,1060.914,165.636,1051.641,156.236,1043.38 M118.696,1100.562 c-0.268,3.77-1.377,40.463,0.857,45.31c18.717,43.237,7.908,32.846,26.61,47.797c28.811,22.833,30.658,23.119,33.677,23.842 c35.561,8.539,47.493,20.929,92.475,24.32c173.983,23.585,146.894,36.416,298.611,91.435c9.02,0.478,17.927-1.911,26.891-2.613 c2.22-11.464,6.336-22.536,7.685-34.169c-30.952-0.387-15.322,17.149-93.051-40.618c-70.46-53.404-52.817-40.423-116.78-58.741 c-29.464-7.597-97.675-19.583-107.606-19.276c-1.995-0.688-4.102-1.04-6.196-1.194l-1.264-1.011 c-10.39-2.117-69.259,1.452-76.275-2.079c-1-0.468-45.084-21.493-47.122-23.28c-25.172-22.288-28.762-21.384-30.67-26.849 C123.711,1115.89,122.11,1107.896,118.696,1100.562 M2485.593,1283.924C2483.345,1288.083,2490.229,1284.191,2485.593,1283.924 M1998.38,1484.089c48.032,50.777,40.611,41.652,79.605,53.712c31.273,6.979-5.345,3.88,68.717-6.477 c9.498,14.036,21.917,25.809,31.583,39.732c6.856,10.523,19.838,13.544,30.586,18.531c21.327,8.084,22.09,16.045,47.614,15.778 l-0.014-1.588c6.369,0.372,46.965-3.466,48.977-4.299c12.532-5.409,25.247-10.397,37.751-15.89 c5.212-18.602,6.168-38.131,11.169-56.775c-3.976-12.293-11.226-23.308-14.527-35.883c-66.257-18.823-47.216,1.31-71.948-24.952 c-2.575-2.532-49.849-54.703-52.925-56.606c-18.922-3.167-28.985-9.716-86.616-17.337c-6.786-0.885-13.488-2.234-20.119-3.836 c-2.529-8.598-4.538-17.337-6.716-26.02C2088.954,1386.238,1999.111,1483.084,1998.38,1484.089z"/> <path d="M1624.801,198.296c-9.652,1.56-19.065-1.63-28.619-2.318c-86.548-11.662-42.652-7.8-115.207,7.207 c-7.202,1.778-4.19-3.071-38.271,39.212c-0.899,24.006,1.374,43.918-1.714,51.478c-12.928,31.669-7.126,31.888-19.346,42.514 c-7.601,6.252-14.359,13.698-23.126,18.377c2.674-15.496,25.234-47.621,15.37-77.624c-18.235-38.094-5.056-29.544-51.267-56.901 c-40.124-24.641-31.222-13.411-90.508-20.653c-12.758-2.477-22.107,7.97-97.448,42.725c-6.674-5.451-13.333-11.113-20.681-15.609 c-96.783-16.875-145.504,20.322-190.934,50.087c-19.907,14.413-59.874,24.591-101.902,43.807 c-3.944,1.015-81.805,12.701-90.564,11.183c-38.188-10.934-42.739-9.97-61.158-15.651c195.894-4.683,178.83-31.485,255.366-68.492 c26.618-14.493,69.889-39.47,79.282-40.997c75.89-13.865,22.514-25.335,122.92-12.462c10.158,1.377,20.639,6.098,30.67,1.363 c15.005-5.156,30.417-9.68,44.453-17.267c28.341-8.356,126.174,4.878,155.543,12.757 C1439.266,201.86,1431.13,114.689,1624.801,198.296z"/> <path d="M1138.024,288.565c-26.327,125.457-14.439,122.796-5.606,161.809c-33.617-28.045-27.684-28.086-32.314-73.03 C1099.86,375.78,1096.258,326.889,1138.024,288.565z"/> <path d="M2009.929,523.292c-28.919,18.425-66.449,37.485-106.594,69.911c17.07,10.607,35.869,18.04,53.262,28.071 c-95.672-12.874-59.458-14.617-131.308-0.66c-32.066,7.09-9.192-9.506-95.018,58.151c-0.624,1.001-41.526,63.012-42.964,64.628 c4.763-33.738,1.083-25.296,12.757-49.932c18.394-36.218,11.807-23.164,35.489-44.579c44.19-36.705,43.735-34.591,46.322-39.381 C1935.43,584.097,1871.616,554.166,2009.929,523.292z"/> <path d="M2040.163,884.999c6.56,14.77,12.667,66.774,21.398,72.187c0.001,0.001,40.715,28.155,40.716,28.155 c3.502,3.596,33.115,5.811,61.453,11.591c8.301,2.168,21.292-5.132,25.233-6.519c31.828-12.85,12.744-0.457,30.923-21.594 c6.744-8.739,14.443-16.845,19.74-26.624c0.731-1.812,2.487-2.698,4.06-3.695c-0.26,0.526-10.594,26.092-21.749,49.174 c-11.68,11.315-33.142,26.682-36.599,32.932c0,0-54.343-5.508-54.344-5.508c-1-0.747-58.942-26.093-65.218-26.975 C2049.083,948.313,2035.638,974.265,2040.163,884.999z"/> <path d="M1833.227,993.012c12.165,4.989,69.745,20.292,85.422,24.193c1.011,0.473,136.643,66.219,149.137,73.451 c-1-0.267-188.164-69.251-204.872-71.021c0,0-79.219-3.449-116.528-4.285c-2.586-0.115-83.576,9.497-87.473,9.793 c6.631-8.247,16.579-13.249,22.269-22.381C1702.394,1002.866,1734.65,987.319,1833.227,993.012z"/> <path d="M1317.676,1249.179c0,0,76.78,57.603,76.781,57.603c106.718,43.995,78.968,29.353,120.714,35.194 c27.594,4.499,37.349,4.834,87.908-11.689c9.438-0.324-8.51-26.99-13.024-51.183c10.119,6.262,8.653,7.594,60.062,48.836 c12.319,4.923,54.272,8.156,83.019,15.174c20.469,3.789,27.214-1.988,102.913-5.142c207.791-58.312,122.032-40.866,214.439-72.903 c-1.001,0.997-73.596,59.887-81.446,64.08c-1,0.589-44.817,26.02-47.263,28.577c-5.55,13.091-20.681,41.446-20.681,41.446 c-1.178-12.746-5.678-40.98-5.817-41.98c-1,0.084-122.124,23.03-195.107,6.336c-1.001-0.231-74.265-16.778-82.752-17.365 c-18.088,8.216-42.532,22.174-46.532,21.791c-82.515,0.206-78.892,0.271-83.174-1.292c-9.41-3.011-71.162-16.995-109.404-36.768 c-95.368,52.055-157.481,43.676-210.744,43.624c-17.506-3.639-34.155-10.65-51.014-16.48 c-13.403-9.188-26.849-18.461-39.522-28.661c89.536,24.937,96.373,40.494,214.481,14.443c7.165-1.967,14.822-2.81,21.243-6.828 c15.384-10.228,32.623-17.365,47.305-28.731C1346.506,1287.492,1331.248,1268.933,1317.676,1249.179z"/> <path d="M1107.578,1397.501c-52.735,37.119-59.418,34.39-57.758,38.777c7.393,5.337,40.264,22.024,45.464,24.952 c29.371,6.67,43.701,20.889,117.258,21.721c155.705-0.506,191.993-27.531,298.456-58.264c6.224-1.278,11.563-5.704,18.208-4.903 c-42.035,20.263-146.39,65.225-225.623,85.436c-77.086,6.345-188.375,12.573-256.855-23.519 c-26.179-13.127-43.625-36.556-51.787-35.012c-39.168,7.204-84.514,9.06-165.659,67.593c-22.694,13.983-7.926,5.449-49.314,13.417 c-11.998-2.375-23.336-7.179-34.548-11.9c74.112-4.605,32.77,7.183,69.925-12.673c37.866-21.827,22.399-20.139,76.261-55.805 c1.01-0.596,37.69-22.792,42.191-23.8c103.57-22.886,60.122-19.163,128.034-23.828 C1064.114,1399.195,1093.368,1396.772,1107.578,1397.501z"/> </g> </svg>